# xmcd CD database file
#
# Track frame offsets:
#	150
#	58597
#	129947
#	165607
#	231077
#	270552
#
# Disc length: 4369 seconds
#
# Revision: 0
# Processed by: cddbd v1.5.2PL0 Copyright (c) Steve Scherf et al.
# Submitted via: CDex 1.51
#
DISCID=47110f06
DTITLE=Prapannan Das - Haribol Vol 1
DYEAR=1900
DGENRE=New Age
TTITLE0=Govinda Hari
TTITLE1=Krishna He
TTITLE2=Radhe Radhe Govinda
TTITLE3=Maha Mantra
TTITLE4=Govinda Bolo Hari Gopala
TTITLE5=Maha Mantra
EXTD=
EXTT0=
EXTT1=
EXTT2=
EXTT3=
EXTT4=
EXTT5=
PLAYORDER=
